# xmcd CD Database Entry
#
# Track frame offsets:
# 150
# 18092
# 34132
# 57952
# 74810
# 88220
# 110290
# 131935
# 148880
# 165490
# 178070
# 192345
#
# Disc length: 2730 seconds
#
# Revision: 2
# Processed by: cddbd v1.4PL0 Copyright (c) Steve Scherf et al.
# Submitted via: tcd 2.0b
#
DISCID=b30aa80c
DTITLE=AMAZING GRACE
DYEAR=1900
DGENRE=
TTITLE0=THE OLD RUGGED CROSS
TTITLE1=WAYFARING STRANGER
TTITLE2=THERE IS POWER IN THE BLOOD
TTITLE3=WILL THE CIRCLE BE UNBROKEN
TTITLE4=A BEAUTIFUL LIFE
TTITLE5=I SURRENDER ALL
TTITLE6=AMAZING GRACE
TTITLE7=JUST A LITTLE TALK WITH JESUS
TTITLE8=WERE YOU THERE
TTITLE9=JUST AS I AM
TTITLE10=NEATH THE OLD OLIVE TREES
TTITLE11=PRECIOUS LORD, TAKE MY HAND
EXTD=
EXTT0=JOHN BERRY
EXTT1=TRACE ADKINS
EXTT2=LARI WHITE
EXTT3=MEDLY, BRYAN WHITE
EXTT4=KIM RICHEY
EXTT5=GARY CHAPMAN
EXTT6=BELA FLECK
EXTT7=CHARLIE DANIELS
EXTT8=MARTY RAYBON
EXTT9=BILLY RAY CYRUS
EXTT10=THE COX FAMILY
EXTT11=RICKY VAN SHELTON
PLAYORDER=
